<svg xmlns="http://www.w3.org/2000/svg" width="1200" height="360" viewBox="0 0 1200 360" role="img" aria-labelledby="title desc">
  <title id="title">Seaver Olson</title>
  <desc id="desc">A layered evergreen forest with Loyola Chicago systems researcher below Seaver Olson.</desc>
  <defs>
    <linearGradient id="sky" x1="0" y1="0" x2="0" y2="1">
      <stop offset="0" stop-color="#081c15"/>
      <stop offset="1" stop-color="#1b4332"/>
    </linearGradient>
    <linearGradient id="mist" x1="0" y1="0" x2="1" y2="0">
      <stop offset="0" stop-color="#d8f3dc" stop-opacity="0"/>
      <stop offset="0.5" stop-color="#d8f3dc" stop-opacity=".18"/>
      <stop offset="1" stop-color="#d8f3dc" stop-opacity="0"/>
    </linearGradient>
  </defs>
  <rect width="1200" height="360" rx="12" fill="url(#sky)"/>
  <circle cx="965" cy="78" r="42" fill="#d8f3dc" opacity=".78"/>
  <circle cx="978" cy="68" r="42" fill="#0d241c"/>
  <path d="M0 235L150 105l110 102L390 75l150 150L685 98l165 135L1020 88l180 147v125H0z" fill="#163c2c"/>
  <path d="M0 266L125 155l104 91 135-126 137 133 122-106 112 96 142-121 116 119 107-81v200H0z" fill="#24563f"/>
  <rect x="70" y="230" width="1060" height="24" rx="12" fill="url(#mist)"/>
  <g fill="#0b2b20">
    <path d="M26 315l62-126 62 126h-34v45H60v-45z"/>
    <path d="M126 330l74-152 74 152h-41v30h-66v-30z"/>
    <path d="M950 322l68-140 68 140h-38v38h-60v-38z"/>
    <path d="M1060 314l58-119 58 119h-32v46h-52v-46z"/>
  </g>
  <g fill="#071b14">
    <path d="M0 337l51-104 51 104H74v23H28v-23z"/>
    <path d="M223 337l50-103 50 103h-28v23h-45v-23z"/>
    <path d="M895 337l50-103 50 103h-28v23h-45v-23z"/>
    <path d="M1121 337l48-98 48 98h-27v23h-43v-23z"/>
  </g>
  <text x="600" y="142" text-anchor="middle" fill="#f1faee" font-family="ui-monospace, SFMono-Regular, Menlo, Consolas, monospace" font-size="50" font-weight="700">SEAVER OLSON</text>
  <text x="600" y="184" text-anchor="middle" fill="#b7e4c7" font-family="ui-monospace, SFMono-Regular, Menlo, Consolas, monospace" font-size="19" letter-spacing="2">LOYOLA CHICAGO · SYSTEMS RESEARCHER</text>
  <rect y="350" width="1200" height="10" fill="#081c15"/>
</svg>